<svg xmlns="http://www.w3.org/2000/svg" viewBox="0 0 352.85 351.8"><defs><style>.cls-1{fill:#227039;}.cls-2{fill:#30b567;}.cls-3{fill:#efe064;}.cls-4,.cls-7{fill:#f59040;}.cls-5{fill:#d9e58e;opacity:0.25;}.cls-6{fill:#4d895a;stroke:#155f30;stroke-width:0.5px;}.cls-6,.cls-7{stroke-miterlimit:10;}.cls-7{stroke:#efe063;stroke-width:3px;}</style></defs><g id="Layer_2" data-name="Layer 2"><g id="Textos"><path class="cls-1" d="M347,221.25C323.38,313.49,236,370.78,139.1,346c-23.07-5.9-45.45-9.84-64.64-21.74A159.69,159.69,0,0,1,37,291.94C23.26,275.6,15.28,257.36,8.24,237.52c-3.32-9.36-5.52-22.47-6.81-32.36-2.85-21.76-1.56-48.31,4.92-71,8.93-31.23,22.76-59.87,44.08-82.39C71.15,29.91,96.8,11.85,126.82,4.48A154.38,154.38,0,0,1,174.22.66c14,.87,36,7.7,50.25,11.34C321.36,36.76,370.52,129,347,221.25Z"/><ellipse class="cls-2" cx="150.76" cy="171.08" rx="172.38" ry="149.05" transform="translate(-52.32 274.78) rotate(-75.66)"/><ellipse class="cls-3" cx="150.76" cy="171.63" rx="155.87" ry="134.77" transform="translate(-52.86 275.2) rotate(-75.66)"/><path class="cls-4" d="M262.43,173.5c1.8-33.28-7.31-64.74-24.59-88.88a24.73,24.73,0,0,0-41.6,2.19l-50.75,84.86L231,196.08A24.76,24.76,0,0,0,262.43,173.5Z"/><path class="cls-4" d="M50.37,96.25a155,155,0,0,0-22.12,49.2,159.72,159.72,0,0,0-3.82,20.32c-2.12,17.6,14.64,31.54,31.63,26.49l80.76-21.07L92.27,98.06A24.73,24.73,0,0,0,50.37,96.25Z"/><path class="cls-4" d="M40.24,224.78c11.72,36.08,32.34,63.8,68.18,73l.29.07c14.86,3.75,30.76-1.54,30.4-16.85l-.73-105.06L56.66,195.43C43.14,198.37,36,211.62,40.24,224.78Z"/><path class="cls-4" d="M144.72,178.11l-3,100.8a24.72,24.72,0,0,0,33.92,23.69c30-12.06,56.15-36.94,71.8-70a24.73,24.73,0,0,0-16.8-34.68Z"/><path class="cls-4" d="M184.08,44.19c-2.35-.78-4.75-1.49-7.18-2.11-27-6.91-54.66-2.45-78.89,10.64A24.71,24.71,0,0,0,89.11,88L140.81,167l56.1-85.88A24.73,24.73,0,0,0,184.08,44.19Z"/><path class="cls-5" d="M325.27,82.13l-4-5.61-3.6-4.84L313,65.93,308.61,61c-.36-.4-3.09-3.27-3.47-3.65l-6.82-6.49-4.55-4L290.13,44l-4.31-3.28-2.45-1.77-2.8-2L277,34.62l-5.79-3.55-4.71-2.66-4.72-2.49-4.64-2.25L248.89,20,236.56,15.5,227,12.66l-8.76-2.31-7.43-2-6.59-1.77L201,5.74C175.36-1.44,151.45-1.48,128.71,4,70.37,18.2,22.16,70,5.87,135.9,27.62,91.12,85.68,47.57,138.22,34.14c56.91-14.54,110,23.44,151.65,57.78C358,115,352.75,171.63,352.75,171.63l-.35-8.23-.88-9.13-.79-5.74-.7-4.2-.78-4.05-1-4.57-1.29-5-1.31-4.81-1.71-5.39-1.47-4.2L341,112.55,339.17,108l-2.58-5.5L335,99l-4.17-7.66A99.08,99.08,0,0,0,325.27,82.13Z"/><path class="cls-6" d="M250.3,151.78c-14.45-5.2-32.19-4-48.86-.41,14.94-9.8,28.86-22.17,34.88-37.28a30.16,30.16,0,0,0-46.08-35.3,30.15,30.15,0,0,0-18.62-22.9c-16-6.31-33.88,2.27-39.69,18.4-5.2,14.45-4,32.19-.41,48.86-9.8-14.94-22.17-28.86-37.28-34.88a30.16,30.16,0,0,0-35.3,46.08A30.15,30.15,0,0,0,36,153c-6.3,15.95,2.27,33.88,18.4,39.69,27.15,9.77,65.92-3,87.35-11.91-9,18.47-20.46,35.66-34.36,44.48-20.19,12.8-45.3,8.93-65.78.86-.94-.37-1.86-.76-2.77-1.17-3.65-1.65-7.42,4.72-4.58,7.76l0,0a20.05,20.05,0,0,0,6.4,4.57l8.32,3.91s8.38,3.54,13,4.52a62,62,0,0,0,17.8,1.06,76.76,76.76,0,0,0,10-1.46c12.24-2.59,24.24-7.09,35.12-17a1,1,0,0,0,.14-.15,130.44,130.44,0,0,0,14.34-18.27,123.93,123.93,0,0,0,6.87-12,120,120,0,0,0,6-14.11c.1-.28.18-.56.28-.84,10,21,28.9,61.7,57.88,73.23a30.15,30.15,0,0,0,35.3-46.07,30.16,30.16,0,0,0,22.9-18.63C275,175.52,266.43,157.59,250.3,151.78Z"/><path class="cls-7" d="M47.11,150.93q.7,7.86,1.43,15.72c-.64,0-2,0-4.15.16-1.44.11-3,.29-4.71.56l.45,4.75c1.86-.28,4.87-.85,9-1.67-.09.64-.2,1.82-.33,3.53-.07,1-.08,2.23-.05,3.57a33.83,33.83,0,0,0-3.69.17c-.91.11-2.25.32-4,.65q.38,2.76.73,5.52c1.24-.24,3.49-.76,6.78-1.52a23,23,0,0,0,3-1.1c-.05.53-.16,1.8-.32,3.81-.06,1-.13,2.34-.21,3.92q-11,1.84-21.88,4.07-2.3-9.51-4.6-19-1.55-6.54-4.74-18.2Q33.44,153.09,47.11,150.93Z"/><path class="cls-7" d="M80,177.26c-.09.68-.26,2-.48,3.83a36,36,0,0,0-.15,3.81Q68.22,186.25,57.11,188q-1-5.74-3.6-18.91-1.4-6.72-4.16-18.52,9-1.41,18.09-2.56,1.31,15.76,2.69,31.51c1.61-.21,4-.71,7.17-1.45A23.77,23.77,0,0,0,80,177.26Z"/><path class="cls-7" d="M120.35,143.39l.06,15.5c-.67-.07-1.74-.14-3.22-.2-.91,0-2.38,0-4.42.11,0,1-.07,3.32-.08,7s.09,8.9.14,15.87q-6,.42-12,.93c-.42-3.3-1.11-8.48-2.1-15.55-.38-2.45-.77-4.83-1.16-7.16-1.35.16-2.69.33-4,.51l-3.62.71q-1.09-7.69-2.2-15.41Q104,144.17,120.35,143.39Z"/><path class="cls-7" d="M157.1,156.72a13.23,13.23,0,0,1-8.38,12.36c.49.73,1.71,2.26,3.63,4.61a60.31,60.31,0,0,0,4.34,4.25c-.78.28-2.5,1-5.14,2.12-1.84.85-3.57,1.68-5.19,2.51-.49-.58-1.57-2.08-3.27-4.5-.79-1.23-2-3.3-3.51-6.21h-.05c0,2.87,0,5.73,0,8.6q-7,.18-13.94.51-.52-5.34-1.61-17.63-.59-7.23-2-20a112.79,112.79,0,0,1,13.15-1.18C149.82,141.8,157.17,146.9,157.1,156.72Zm-11.58,5.34a3.44,3.44,0,0,0-2.1-3.3,7.71,7.71,0,0,0-3.81-.57c0,2.8,0,5.59,0,8.39a7.75,7.75,0,0,0,3.73-1A3.79,3.79,0,0,0,145.52,162.06Z"/><path class="cls-7" d="M186.25,143.49q-.93,7.68-1.82,15.36-.94-.19-4.08-.69c-1.44-.19-3-.33-4.72-.42-.17,1.55-.35,3.1-.53,4.65,1.87.11,4.92.17,9.16.23-.22.6-.57,1.7-1,3.32-.28,1-.54,2.12-.78,3.41-.49-.13-1.7-.33-3.64-.58-.91-.08-2.25-.15-4-.19-.14,1.81-.28,3.62-.41,5.43,1.25,0,3.55,0,6.91-.07a25,25,0,0,0,3.16-.45c-.16.5-.52,1.69-1.09,3.59-.28,1-.61,2.21-1,3.71q-11.07-.47-22.17-.53-.28-9.6-.58-19.19-.16-6.58-.9-18.41Q172.47,142.8,186.25,143.49Z"/><path class="cls-7" d="M221.09,158.51a13,13,0,0,1-2.94,7.28,10.45,10.45,0,0,1-5,3.33,6.19,6.19,0,0,1,2.65,2.66,6.33,6.33,0,0,1,.76,3.65c-.3,3.12-2.24,5.24-5.78,6.39a28,28,0,0,1-10.52.88,100.29,100.29,0,0,1-11.84-1.62q.14-5.69.24-18.53,0-6.9-.2-18.94a65.34,65.34,0,0,1,12.67-.09C215.38,144.58,222,149.81,221.09,158.51Zm-12.64,15c.16-1.87-1.16-2.93-3.94-3.14a6.54,6.54,0,0,0-.89,0l-.6,5.92C206.45,176.65,208.26,175.74,208.45,173.48Zm1.81-11.42a3.2,3.2,0,0,0-1.35-3,6.71,6.71,0,0,0-3.7-1.16q-.48,3.63-.94,7.27C208,165.6,210,164.58,210.26,162.06Z"/><path class="cls-7" d="M256.24,168.69a23.12,23.12,0,0,1-6.75,13.53A15.58,15.58,0,0,1,225,179a23.3,23.3,0,0,1-3-14.81c.62-6.06,2.78-10.65,6.54-13.71,3.55-2.88,8-4,13.12-3.29a16.48,16.48,0,0,1,11.7,6.63C256.27,157.77,257.18,162.74,256.24,168.69Zm-12.77,2.39c.62-4.43-.67-6.88-3.86-7.3s-5,1.64-5.5,6.12a11,11,0,0,0,.58,5.17c.69,1.86,1.68,2.87,3,3s2.53-.57,3.75-2.21A10.31,10.31,0,0,0,243.47,171.08Z"/><path class="cls-7" d="M282,185.49c-.3.6-.84,1.72-1.64,3.37-.43,1-.87,2.13-1.31,3.46q-11-2.19-22.16-4,.79-5.61,2.39-18.51c.49-4.41,1.08-10.52,1.73-18.32q9,1.47,18,3.21-3.6,14.9-7.11,29.82c1.6.3,4,.58,7.28.88A25.15,25.15,0,0,0,282,185.49Z"/></g></g></svg>